<svg width="48" height="49" viewBox="0 0 48 49" fill="none" xmlns="http://www.w3.org/2000/svg">
<path fill-rule="evenodd" clip-rule="evenodd" d="M24 33.7162C29.09 33.7162 33.2162 29.59 33.2162 24.5C33.2162 19.41 29.09 15.2838 24 15.2838C18.91 15.2838 14.7838 19.41 14.7838 24.5C14.7838 29.59 18.91 33.7162 24 33.7162ZM35 24.5C35 30.5751 30.0751 35.5 24 35.5C17.9249 35.5 13 30.5751 13 24.5C13 18.4249 17.9249 13.5 24 13.5C30.0751 13.5 35 18.4249 35 24.5Z" fill="#626A6A"/>
<path d="M25.6667 27.5L29 24.5M29 24.5L25.6667 21.5M29 24.5L19 24.5" stroke="#626A6A" stroke-width="1.5" stroke-linecap="round" stroke-linejoin="round"/>
</svg>
